<svg xmlns="http://www.w3.org/2000/svg" xmlns:xlink="http://www.w3.org/1999/xlink" width="1080" height="1350" viewBox="0 0 1080 1350">
  <defs>
    <linearGradient id="bg" x1="0" y1="0" x2="0" y2="1">
      <stop offset="0" stop-color="#ffe9d6"/>
      <stop offset="1" stop-color="#ffd9e8"/>
    </linearGradient>
    <linearGradient id="gold" x1="0" y1="0" x2="1" y2="1">
      <stop offset="0" stop-color="#f6c453"/>
      <stop offset="1" stop-color="#e8a13c"/>
    </linearGradient>
    <radialGradient id="balloon1" cx="0.35" cy="0.3" r="0.8">
      <stop offset="0" stop-color="#ff9aa2"/>
      <stop offset="1" stop-color="#f56a7c"/>
    </radialGradient>
    <radialGradient id="balloon2" cx="0.35" cy="0.3" r="0.8">
      <stop offset="0" stop-color="#7fd8be"/>
      <stop offset="1" stop-color="#3fbfa0"/>
    </radialGradient>
    <radialGradient id="balloon3" cx="0.35" cy="0.3" r="0.8">
      <stop offset="0" stop-color="#8ec5ff"/>
      <stop offset="1" stop-color="#5a9cf5"/>
    </radialGradient>
    <clipPath id="photoClip">
      <circle cx="540" cy="635" r="285"/>
    </clipPath>
  </defs>

  <rect width="1080" height="1350" fill="url(#bg)"/>

  <!-- confetti -->
  <g opacity="0.5">
    <circle cx="120" cy="180" r="8" fill="#f56a7c"/>
    <rect x="200" y="120" width="14" height="14" rx="3" fill="#3fbfa0" transform="rotate(20 207 127)"/>
    <circle cx="940" cy="160" r="9" fill="#f6c453"/>
    <rect x="860" y="90" width="12" height="12" rx="3" fill="#5a9cf5" transform="rotate(-15 866 96)"/>
    <circle cx="80" cy="1180" r="7" fill="#f6c453"/>
    <rect x="960" y="1150" width="13" height="13" rx="3" fill="#f56a7c" transform="rotate(25 966 1156)"/>
    <circle cx="500" cy="70" r="6" fill="#3fbfa0"/>
    <rect x="620" y="110" width="11" height="11" rx="3" fill="#f6c453" transform="rotate(40 625 115)"/>
  </g>

  <!-- balloons -->
  <g>
    <ellipse cx="170" cy="240" rx="85" ry="102" fill="url(#balloon1)"/>
    <path d="M170 342 L170 385 M170 342 L156 372 M170 342 L184 372" stroke="#c94f63" stroke-width="4" fill="none"/>
    <ellipse cx="910" cy="225" rx="85" ry="102" fill="url(#balloon2)"/>
    <path d="M910 327 L910 370 M910 327 L896 357 M910 327 L924 357" stroke="#2e9a82" stroke-width="4" fill="none"/>
    <ellipse cx="100" cy="620" rx="72" ry="86" fill="url(#balloon3)"/>
    <path d="M100 706 L100 744 M100 706 L88 732 M100 706 L112 732" stroke="#4178c9" stroke-width="4" fill="none"/>
    <ellipse cx="980" cy="600" rx="72" ry="86" fill="url(#balloon1)"/>
    <path d="M980 686 L980 724 M980 686 L968 712 M980 686 L992 712" stroke="#c94f63" stroke-width="4" fill="none"/>
  </g>

  <!-- card -->
  <rect x="90" y="230" width="900" height="920" rx="40" fill="#ffffff" stroke="#f0d9c0" stroke-width="4"/>
  <rect x="112" y="252" width="856" height="876" rx="28" fill="none" stroke="#f6c453" stroke-width="3" stroke-dasharray="2 12"/>

  <text x="540" y="330" text-anchor="middle" font-family="Georgia, serif" font-size="48" letter-spacing="9" fill="#e8a13c">ДЕНЬ РОЖДЕНИЯ</text>

  <!-- photo -->
  <circle cx="540" cy="635" r="300" fill="none" stroke="url(#gold)" stroke-width="14"/>
  <circle cx="540" cy="635" r="272" fill="none" stroke="#ffffff" stroke-width="4"/>
  <image x="255" y="350" width="570" height="570" xlink:href="/home/user1/.openclaw/workspace/media/inbound/openclaw-staged-b7069044-7b45-4192-be25-efa50f74448e/aaca98a5-2901-4336-ba84-64f79e34223e.jpg" clip-path="url(#photoClip)" preserveAspectRatio="xMidYMid slice"/>

  <text x="540" y="1015" text-anchor="middle" font-family="Georgia, serif" font-size="64" font-weight="bold" fill="#5a3a3a">Приглашаю на праздник!</text>

  <line x1="330" y1="1055" x2="750" y2="1055" stroke="#f6c453" stroke-width="4" stroke-linecap="round"/>

  <text x="540" y="1110" text-anchor="middle" font-family="Georgia, serif" font-size="40" fill="#7a5a5a">25 октября · 18:00</text>
  <text x="540" y="1160" text-anchor="middle" font-family="Georgia, serif" font-size="40" fill="#7a5a5a">ул. Праздничная, 10</text>
</svg>
